<svg width="272" height="326" viewBox="0 0 272 326" fill="none" xmlns="http://www.w3.org/2000/svg">
<rect width="272" height="326" fill="#67C8C5"/>
<path d="M79.8285 155.447V172.599L94.6366 181.096V163.944L79.8285 155.447ZM98.1023 187.076V204.228L112.91 212.726V195.574L98.1023 187.076ZM113.225 132.157L98.2598 123.66V141.914V142.071V142.228V142.386V142.543V142.701C98.2598 142.701 98.2598 142.858 98.1023 142.858C98.1023 142.858 98.1023 143.015 97.9447 143.015C97.9447 143.015 97.9447 143.173 97.7872 143.173C97.7872 143.173 97.6297 143.173 97.6297 143.33C97.6297 143.33 97.4721 143.33 97.4721 143.487L81.7189 152.457L96.5269 160.954L113.225 151.355V132.157ZM129.766 120.67L114.801 112.173L99.9927 120.67L114.958 129.168L129.766 120.67ZM116.534 153.401V172.599L133.232 182.198L149.773 172.599V153.401L133.075 143.802L116.534 153.401ZM166.471 120.67L151.506 112.173L136.698 120.67L151.663 129.168L166.471 120.67ZM116.534 149.467L132.129 140.497H132.287H132.444H132.602H132.759H132.917H133.075H133.232H133.39H133.547H133.705L149.458 149.624V132.472L132.759 122.873L116.219 132.472L116.534 149.467ZM153.239 212.883L168.047 204.228V187.233L153.239 195.888V212.883ZM171.512 181.254L186.321 172.599V155.604L171.512 164.259V181.254ZM168.992 143.33C168.834 143.33 168.834 143.33 168.992 143.33C168.834 143.33 168.834 143.173 168.834 143.173C168.834 143.173 168.677 143.173 168.677 143.015C168.677 143.015 168.677 142.858 168.519 142.858C168.519 142.858 168.519 142.701 168.362 142.701C168.362 142.701 168.362 142.543 168.204 142.543C168.204 142.543 168.204 142.386 168.047 142.386V142.228V142.071V141.914V141.756V123.503L153.239 132V151.355L169.78 160.954L184.588 152.299L168.992 143.33ZM114.013 175.117C113.856 175.117 113.856 174.959 113.856 174.959C113.856 174.959 113.698 174.959 113.698 174.802C113.698 174.645 113.698 174.645 113.54 174.645C113.54 174.645 113.54 174.487 113.383 174.487C113.383 174.487 113.383 174.33 113.225 174.33V174.173V174.015V173.858V173.701V173.543V155.289L98.2598 163.944V183.142L114.643 192.741L129.609 184.244L114.013 175.117ZM153.239 173.543C153.239 173.701 153.239 173.701 153.239 173.543C153.239 173.701 153.239 173.701 153.239 173.858V174.015V174.173V174.33V174.487C153.239 174.487 153.239 174.645 153.081 174.645C153.081 174.645 153.081 174.802 152.924 174.802C152.924 174.802 152.924 174.959 152.766 174.959C152.766 174.959 152.609 174.959 152.609 175.117C152.609 175.117 152.451 175.117 152.451 175.274L136.698 184.401L151.663 193.056L168.047 183.299V164.102L153.239 155.447V173.543ZM209.793 112.487L138.588 71.4162C135.28 69.5279 131.027 69.5279 127.718 71.4162L56.3561 112.487C53.0479 114.533 51 117.995 51 121.929V204.071C51 208.005 53.0479 211.467 56.3561 213.513L127.561 254.584C130.869 256.472 135.122 256.472 138.431 254.584L209.635 213.513C212.944 211.624 214.992 208.005 214.992 204.071V121.929C215.149 117.995 213.101 114.533 209.793 112.487ZM189.786 173.701C189.786 173.858 189.786 173.858 189.786 174.015V174.173V174.33V174.487C189.786 174.487 189.786 174.645 189.629 174.645C189.629 174.645 189.629 174.802 189.471 174.802C189.471 174.802 189.471 174.959 189.314 174.959C189.314 174.959 189.314 175.117 189.156 175.117C189.156 175.117 188.999 175.117 188.999 175.274C188.999 175.274 188.841 175.274 188.841 175.431L171.355 185.503V205.33V205.487V205.645V205.802V205.959V206.117C171.355 206.117 171.355 206.274 171.197 206.274C171.197 206.274 171.197 206.431 171.04 206.431C171.04 206.431 171.04 206.589 170.882 206.589C170.882 206.589 170.882 206.589 170.725 206.746C170.725 206.746 170.567 206.746 170.567 206.904L152.294 217.447H152.136C151.978 217.447 151.978 217.447 151.821 217.604H151.663H151.506H151.348C151.033 217.604 150.876 217.447 150.718 217.447L133.232 207.376L115.588 217.289H115.431C115.273 217.289 115.273 217.289 115.116 217.447C114.958 217.447 114.958 217.447 114.801 217.447C114.801 217.447 114.801 217.447 114.643 217.447C114.643 217.447 114.643 217.447 114.486 217.447C114.171 217.447 114.013 217.289 113.856 217.289L95.5817 206.746C95.5817 206.746 95.4242 206.746 95.4242 206.589C95.4242 206.589 95.2667 206.589 95.2667 206.431C95.2667 206.431 95.2667 206.274 95.1091 206.274C95.1091 206.274 95.1091 206.117 94.9516 206.117C94.9516 206.117 94.9516 205.959 94.7941 205.959V205.802V205.645V205.487V205.33V205.173V185.03L77.4655 174.959C77.4655 174.959 77.308 174.959 77.308 174.802C77.308 174.802 77.1504 174.802 77.1504 174.645C77.1504 174.645 77.1504 174.487 76.9929 174.487C76.9929 174.487 76.9929 174.33 76.8354 174.33C76.8354 174.33 76.8354 174.173 76.6778 174.173V174.015V173.858V173.701V173.543V173.386V152.142V151.985V151.827V151.67L76.8354 151.513L76.9929 151.355C76.9929 151.355 76.9929 151.355 77.1504 151.355L94.7941 140.812V120.67C94.7941 120.67 94.7941 120.67 94.7941 120.513V120.355V120.198V120.041V119.883C94.7941 119.883 94.7941 119.883 94.7941 119.726L94.9516 119.569L95.1091 119.411L95.2667 119.254L114.013 108.711H114.171H114.328H114.486H114.643H114.801H114.958H115.116H115.273H115.431H115.588L133.075 118.782L150.403 108.711H150.561H150.718H150.876H151.033H151.191H151.348H151.506H151.663H151.821H151.978L170.725 119.254C170.725 119.254 170.882 119.254 170.882 119.411L171.04 119.569C171.04 119.569 171.04 119.726 171.197 119.726C171.197 119.726 171.197 119.883 171.355 119.883V120.041C171.355 120.041 171.355 120.041 171.355 120.198V140.34L188.841 150.569C188.841 150.569 188.999 150.569 188.999 150.726C188.999 150.726 189.156 150.726 189.156 150.883C189.156 150.883 189.156 151.041 189.314 151.041C189.314 151.041 189.314 151.198 189.471 151.198C189.471 151.198 189.471 151.198 189.471 151.355V151.513V151.67V151.827V173.701H189.786ZM116.376 195.731V212.883L132.129 203.756H132.287H132.444H132.602H132.759H132.917H133.075H133.232H133.39H133.547H133.705L149.458 212.883V195.888L132.759 186.132L116.376 195.731Z" fill="white"/>
</svg>
