<svg width="272" height="326" viewBox="0 0 272 326" fill="none" xmlns="http://www.w3.org/2000/svg">
<rect width="272" height="326" fill="#ED9993"/>
<path d="M173.622 143.959L85.7189 194.629L100.684 203.127L188.745 152.299L173.622 143.959ZM102.26 160.01L153.773 130.269V113.117L102.26 142.858V160.01ZM172.047 123.817L101.315 164.574L83.986 174.645V191.797L172.047 140.97V123.817ZM190.321 132.315L175.355 123.817V140.97L190.321 149.467V132.315ZM152.04 110.127L137.075 101.629L85.5613 131.213L100.527 139.711L152.04 110.127ZM98.7941 142.858L83.8285 134.36V151.513L98.7941 160.168V142.858ZM120.534 214.929L135.499 223.426V206.274L120.534 197.777V214.929ZM213.793 112.487L142.588 71.4162C139.28 69.5279 135.027 69.5279 131.718 71.4162L60.3561 112.487C57.0479 114.533 55 117.995 55 121.929V204.071C55 208.005 57.0479 211.467 60.3561 213.513L131.561 254.584C134.869 256.472 139.122 256.472 142.431 254.584L213.635 213.513C216.944 211.624 218.992 208.005 218.992 204.071V121.929C219.149 117.995 217.101 114.533 213.793 112.487ZM193.786 194.787V194.944C193.786 195.102 193.786 195.102 193.786 195.259C193.786 195.416 193.629 195.416 193.629 195.574C193.629 195.731 193.471 195.731 193.471 195.888C193.314 196.046 193.314 196.046 193.156 196.203L192.999 196.36L138.02 227.99H137.862H137.705C137.705 227.99 137.705 227.99 137.547 227.99C137.39 227.99 137.232 228.147 137.075 228.147C136.917 228.147 136.759 228.147 136.602 228.147C136.602 228.147 136.602 228.147 136.444 228.147H136.287C136.287 228.147 136.287 228.147 136.129 228.147L117.698 217.604L117.54 217.447C117.383 217.447 117.383 217.289 117.225 217.289C117.225 217.132 117.068 217.132 117.068 216.975C117.068 216.817 116.91 216.817 116.91 216.66C116.91 216.503 116.91 216.503 116.91 216.345V216.188V197.934L101.315 206.904C101.157 206.904 101.157 207.061 101 207.061C100.842 206.904 100.684 206.904 100.527 206.904C100.369 206.904 100.212 206.904 100.054 206.746C99.8968 206.746 99.7393 206.589 99.7393 206.589L81.308 196.046C80.9929 195.888 80.8354 195.731 80.6778 195.416V195.259C80.6778 195.259 80.6778 195.259 80.6778 195.102V194.944C80.6778 194.787 80.6778 194.787 80.6778 194.629C80.6778 194.629 80.6778 194.629 80.6778 194.472V173.228V173.071C80.6778 172.914 80.6778 172.914 80.6778 172.756C80.6778 172.599 80.8354 172.599 80.8354 172.442C80.8354 172.284 80.9929 172.284 80.9929 172.127C81.1504 171.97 81.1504 171.97 81.308 171.812L81.4655 171.655L97.2188 162.685L81.4655 153.558L81.308 153.401C81.1504 153.401 81.1504 153.244 80.9929 153.086C80.9929 152.929 80.8354 152.929 80.8354 152.772C80.8354 152.614 80.6778 152.614 80.6778 152.457C80.6778 152.299 80.6778 152.299 80.6778 152.142V151.985V130.741C80.6778 130.741 80.6778 130.741 80.6778 130.584V130.426C80.6778 130.269 80.6778 130.269 80.6778 130.269C80.6778 130.269 80.6778 130.112 80.8354 130.112C80.8354 130.112 80.8354 130.112 80.8354 129.954C80.8354 129.954 80.8354 129.954 80.8354 129.797L80.9929 129.64L81.1504 129.482L81.308 129.325L136.287 97.6954H136.444C136.602 97.6954 136.602 97.5381 136.759 97.5381C136.917 97.5381 136.917 97.5381 137.075 97.5381C137.232 97.5381 137.232 97.5381 137.39 97.5381C137.547 97.5381 137.547 97.5381 137.705 97.6954H137.862L156.294 108.239C156.294 108.239 156.294 108.239 156.451 108.239L156.609 108.396L156.766 108.553L156.924 108.711C156.924 108.711 156.924 108.711 156.924 108.868C156.924 108.868 156.924 108.868 156.924 109.025C156.924 109.025 156.924 109.183 157.081 109.183V109.34V109.497C157.081 109.497 157.081 109.497 157.081 109.655V127.909L172.677 118.939C172.677 118.939 172.677 118.939 172.834 118.939C172.834 118.939 172.992 118.939 172.992 118.782H173.15H173.307C173.307 118.782 173.307 118.782 173.465 118.782C173.465 118.782 173.465 118.782 173.622 118.782H173.78C173.937 118.782 173.937 118.782 174.095 118.782H174.252H174.41L192.999 129.797L193.156 129.954C193.314 129.954 193.314 130.112 193.471 130.112C193.471 130.269 193.629 130.269 193.629 130.426C193.629 130.584 193.786 130.584 193.786 130.741C193.786 130.898 193.786 130.898 193.786 131.056V131.213V152.457C193.786 152.457 193.786 152.457 193.786 152.614V152.772C193.786 152.929 193.786 152.929 193.786 152.929C193.786 152.929 193.786 153.086 193.629 153.086C193.629 153.086 193.629 153.086 193.629 153.244C193.629 153.244 193.629 153.244 193.471 153.401C193.471 153.401 193.471 153.558 193.314 153.558C193.314 153.558 193.314 153.558 193.156 153.716C192.999 153.873 192.999 153.873 192.841 154.03L177.245 163L192.999 171.97C192.999 171.97 192.999 171.97 193.156 171.97C193.314 171.97 193.314 172.127 193.471 172.127C193.471 172.127 193.471 172.127 193.629 172.284C193.629 172.284 193.629 172.284 193.629 172.442L193.786 172.599V172.756C193.786 172.756 193.786 172.756 193.786 172.914V173.071C193.786 173.228 193.786 173.228 193.786 173.386C193.786 173.386 193.786 173.386 193.786 173.543V194.787ZM138.965 223.426L190.478 193.685V176.533L138.965 206.274V223.426ZM173.78 165.046L122.266 194.787L137.232 203.284L188.745 173.543L173.78 165.046Z" fill="white"/>
</svg>
